<?xml version="1.0" encoding="utf-8"?>
<!-- Generator: Adobe Illustrator 17.0.0, SVG Export Plug-In . SVG Version: 6.00 Build 0)  -->
<!DOCTYPE svg PUBLIC "-//W3C//DTD SVG 1.1//EN" "http://www.w3.org/Graphics/SVG/1.1/DTD/svg11.dtd">
<svg version="1.1" id="Layer_1" xmlns="http://www.w3.org/2000/svg" xmlns:xlink="http://www.w3.org/1999/xlink" x="0px" y="0px"
	 width="600px" height="400px" viewBox="0 0 600 400" enable-background="new 0 0 600 400" xml:space="preserve">
<rect display="none" fill="#F1F2F2" width="600" height="400"/>
<g>
	<g>
		<circle fill="#BE1E2D" cx="100.466" cy="97.587" r="25.856"/>
	</g>
	<g>
		<path fill="#594A42" d="M207.997,58.692c0.836-0.152,1.728-0.266,2.68-0.343c0.949-0.074,1.842-0.113,2.68-0.113
			c0.836,0,1.728,0.039,2.68,0.113c0.949,0.077,1.842,0.191,2.68,0.343l35.698,61.589V58.692c0.913-0.152,1.862-0.266,2.852-0.343
			c0.987-0.074,1.975-0.113,2.965-0.113c0.836,0,1.71,0.039,2.623,0.113c0.913,0.077,1.785,0.191,2.623,0.343v82.003
			c-0.838,0.152-1.73,0.266-2.68,0.343c-0.951,0.073-1.844,0.112-2.68,0.112c-0.838,0-1.73-0.039-2.68-0.112
			c-0.951-0.077-1.844-0.191-2.68-0.343l-35.813-61.246v61.246c-0.837,0.152-1.73,0.266-2.68,0.343
			c-0.951,0.073-1.882,0.112-2.794,0.112c-0.99,0-1.959-0.039-2.909-0.112c-0.951-0.077-1.807-0.191-2.566-0.343V58.692z"/>
		<path fill="#594A42" d="M293.079,114.234c0.152,6.388,1.806,11.064,4.961,14.029c3.154,2.965,7.813,4.448,13.972,4.448
			c5.398,0,10.531-0.948,15.397-2.851c0.607,1.141,1.101,2.528,1.483,4.163c0.38,1.636,0.607,3.25,0.684,4.847
			c-2.509,1.066-5.266,1.863-8.268,2.395c-3.004,0.532-6.33,0.798-9.98,0.798c-5.323,0-9.885-0.74-13.687-2.223
			c-3.803-1.483-6.939-3.574-9.409-6.273c-2.472-2.699-4.277-5.893-5.418-9.581c-1.141-3.687-1.711-7.735-1.711-12.145
			c0-4.335,0.551-8.384,1.654-12.147c1.101-3.764,2.795-7.032,5.076-9.809c2.281-2.774,5.151-4.979,8.61-6.614
			c3.46-1.634,7.546-2.452,12.261-2.452c4.029,0,7.565,0.684,10.607,2.053c3.04,1.368,5.588,3.25,7.641,5.645
			c2.053,2.395,3.611,5.246,4.676,8.554c1.064,3.307,1.597,6.9,1.597,10.778c0,1.065-0.039,2.185-0.114,3.364
			c-0.077,1.179-0.154,2.187-0.228,3.021H293.079z M322.049,105.794c0-2.127-0.285-4.162-0.856-6.101
			c-0.57-1.939-1.408-3.63-2.509-5.076c-1.104-1.443-2.51-2.603-4.22-3.479c-1.711-0.873-3.747-1.312-6.103-1.312
			c-4.638,0-8.193,1.409-10.664,4.22c-2.471,2.814-3.973,6.73-4.505,11.747H322.049z"/>
		<path fill="#594A42" d="M339.726,82.186c1.065-0.151,2.128-0.265,3.194-0.342c1.064-0.075,2.014-0.113,2.852-0.113
			c1.064,0,2.147,0.038,3.25,0.113c1.101,0.077,2.071,0.191,2.909,0.342l11.405,47.788l12.887-47.788
			c0.836-0.151,1.749-0.265,2.738-0.342c0.986-0.075,2.013-0.113,3.079-0.113c1.215,0.076,2.26,0.133,3.136,0.171
			c0.873,0.039,1.728,0.134,2.566,0.285l12.775,46.99l11.405-46.99c0.836-0.151,1.672-0.265,2.508-0.342
			c0.836-0.075,1.749-0.113,2.738-0.113c0.836,0,1.767,0.038,2.795,0.113c1.025,0.077,2.071,0.191,3.136,0.342l-17.449,58.509
			c-0.99,0.152-1.996,0.266-3.023,0.343c-1.025,0.073-1.959,0.112-2.795,0.112c-0.836,0-1.749-0.039-2.736-0.112
			c-0.99-0.077-1.977-0.191-2.965-0.343l-12.546-44.252l-13.115,44.252c-1.066,0.152-2.11,0.266-3.137,0.343
			c-1.027,0.073-1.959,0.112-2.795,0.112c-0.838,0-1.767-0.039-2.795-0.112c-1.026-0.077-1.959-0.191-2.794-0.343L339.726,82.186z"
			/>
		<path fill="#BE1E2D" d="M438.495,91.082h-7.413c-0.154-0.607-0.268-1.311-0.343-2.109c-0.077-0.798-0.114-1.577-0.114-2.338
			c0-0.759,0.037-1.54,0.114-2.338c0.075-0.798,0.189-1.5,0.343-2.11h18.476v61.817c0,3.421-0.456,6.273-1.367,8.554
			c-0.913,2.281-2.187,4.123-3.822,5.531c-1.636,1.406-3.555,2.412-5.76,3.021c-2.206,0.609-4.601,0.913-7.186,0.913
			c-4.105,0-7.565-0.495-10.378-1.483c0.077-1.445,0.268-2.928,0.57-4.448c0.306-1.522,0.723-2.89,1.256-4.107
			c1.824,0.609,3.951,0.913,6.386,0.913c0.988,0,2.015-0.077,3.079-0.229c1.065-0.152,2.054-0.551,2.965-1.198
			c0.913-0.647,1.672-1.616,2.281-2.907c0.609-1.295,0.913-3.079,0.913-5.36V91.082z M435.759,69.184
			c-0.154-1.064-0.268-2.07-0.343-3.022c-0.077-0.949-0.114-1.842-0.114-2.68c0-0.836,0.037-1.728,0.114-2.68
			c0.075-0.949,0.189-1.919,0.343-2.908c0.988-0.152,2.052-0.286,3.194-0.399c1.14-0.114,2.127-0.171,2.965-0.171
			c0.836,0,1.805,0.057,2.907,0.171c1.102,0.113,2.11,0.247,3.023,0.399c0.152,0.989,0.266,1.959,0.343,2.908
			c0.075,0.952,0.112,1.844,0.112,2.68c0,0.838-0.037,1.731-0.112,2.68c-0.077,0.952-0.191,1.959-0.343,3.022
			c-0.913,0.154-1.921,0.285-3.023,0.399c-1.102,0.114-2.071,0.171-2.907,0.171c-0.838,0-1.826-0.057-2.965-0.171
			C437.811,69.469,436.747,69.338,435.759,69.184z"/>
		<path fill="#BE1E2D" d="M491.527,142.063c-4.562,0-8.554-0.78-11.975-2.337c-3.422-1.558-6.273-3.707-8.554-6.444
			c-2.281-2.738-3.973-5.97-5.076-9.696c-1.102-3.724-1.653-7.756-1.653-12.089s0.551-8.363,1.653-12.089
			c1.102-3.725,2.795-6.957,5.076-9.695c2.281-2.737,5.132-4.904,8.554-6.501c3.421-1.597,7.413-2.395,11.975-2.395
			s8.554,0.798,11.977,2.395c3.421,1.597,6.271,3.764,8.552,6.501c2.283,2.737,3.973,5.97,5.076,9.695
			c1.102,3.726,1.655,7.756,1.655,12.089s-0.553,8.365-1.655,12.089c-1.102,3.726-2.793,6.957-5.076,9.696
			c-2.281,2.736-5.132,4.886-8.552,6.444C500.081,141.283,496.089,142.063,491.527,142.063z M491.527,133.053
			c5.246,0,9.124-1.901,11.634-5.703c2.51-3.801,3.764-9.085,3.764-15.853c0-6.766-1.254-12.033-3.764-15.796
			c-2.51-3.764-6.388-5.645-11.634-5.645c-5.246,0-9.105,1.882-11.576,5.645c-2.472,3.764-3.707,9.03-3.707,15.796
			c0,6.768,1.235,12.052,3.707,15.853C482.422,131.153,486.281,133.053,491.527,133.053z"/>
		<path fill="#BE1E2D" d="M533.497,57.095c0.836-0.152,1.767-0.266,2.795-0.342c1.027-0.075,1.957-0.114,2.795-0.114
			c0.836,0,1.786,0.039,2.851,0.114c1.065,0.076,2.015,0.19,2.853,0.342v32.162c1.368-2.281,3.496-4.257,6.386-5.931
			c2.89-1.671,6.388-2.509,10.494-2.509c3.495,0,6.729,0.57,9.694,1.71c2.965,1.141,5.512,2.909,7.641,5.304
			c2.127,2.394,3.782,5.436,4.961,9.124c1.179,3.689,1.767,8.04,1.767,13.059c0,10.037-2.834,17.888-8.496,23.552
			c-5.666,5.664-13.821,8.496-24.465,8.496c-3.346,0-6.785-0.324-10.322-0.969c-3.535-0.645-6.521-1.387-8.953-2.225V57.095z
			 M544.79,131.228c1.368,0.457,2.83,0.782,4.39,0.971c1.557,0.189,3.175,0.285,4.849,0.285c2.811,0,5.417-0.437,7.812-1.312
			c2.395-0.873,4.466-2.204,6.215-3.992c1.749-1.786,3.138-4.067,4.163-6.843c1.027-2.774,1.541-6.063,1.541-9.866
			c0-6.309-1.104-11.214-3.308-14.712c-2.206-3.496-5.855-5.246-10.949-5.246c-1.749,0-3.479,0.285-5.188,0.855
			c-1.711,0.571-3.291,1.483-4.734,2.737c-1.445,1.255-2.605,2.929-3.479,5.018c-0.873,2.093-1.31,4.619-1.31,7.584V131.228z"/>
	</g>
	<g>
		<path fill="#BE1E2D" d="M166.316,88.833h16.74c-4.078-38.924-35.036-69.843-73.98-73.854v16.74
			C138.832,35.572,162.399,59.097,166.316,88.833z"/>
	</g>
	<g>
		<path fill="#BE1E2D" d="M91.856,31.719v-16.74C52.816,19,21.796,50.061,17.841,89.12H34.58
			C38.382,59.249,62.004,35.585,91.856,31.719z"/>
	</g>
	<g>
		<path fill="#BE1E2D" d="M109.363,163.418v16.741c38.904-4.145,69.783-35.142,73.728-74.105h-16.739
			C162.562,135.829,139.079,159.439,109.363,163.418z"/>
	</g>
	<g>
		<path fill="#BE1E2D" d="M34.616,106.341h-16.74c4.088,39.019,35.189,69.993,74.266,73.882v-16.732
			C62.252,159.753,38.545,136.172,34.616,106.341z"/>
	</g>
	<g>
		<path fill="#594A42" d="M136.701,88.833h19.044c-3.762-23.945-22.703-42.85-46.669-46.551v19.033
			C122.707,64.541,133.422,75.223,136.701,88.833z"/>
	</g>
	<g>
		<path fill="#594A42" d="M109.363,133.785v19.056c23.925-3.823,42.79-22.802,46.431-46.787h-19.019
			C133.602,119.705,122.953,130.454,109.363,133.785z"/>
	</g>
	<g>
		<path fill="#594A42" d="M64.231,106.341H45.187c3.777,24.041,22.855,42.998,46.956,46.592v-19
			C78.374,130.791,67.533,120.047,64.231,106.341z"/>
	</g>
	<g>
		<path fill="#594A42" d="M91.856,61.315V42.282C67.794,45.998,48.793,65.038,45.138,89.12h19.019
			C67.353,75.372,78.128,64.564,91.856,61.315z"/>
	</g>
</g>
</svg>
